HIERARCHY
ROOT hip
{
  OFFSET 5.70873 43.8894 -1.52928
  CHANNELS 6 Xposition Yposition Zposition Zrotation Xrotation Yrotation
  JOINT abdomen
  {
    OFFSET 0 5.99393 0.287273
    CHANNELS 6 Xposition Yposition Zposition Zrotation Xrotation Yrotation
    JOINT chest
    {
      OFFSET 0 6.65865 -0.856112
      CHANNELS 6 Xposition Yposition Zposition Zrotation Xrotation Yrotation
      JOINT neck
      {
        OFFSET 0 8.65624 -1.42685
        CHANNELS 6 Xposition Yposition Zposition Zrotation Xrotation Yrotation
        JOINT head
        {
          OFFSET 0 3.80999 -0.190247
          CHANNELS 6 Xposition Yposition Zposition Zrotation Xrotation Yrotation
          End Site
          {
            OFFSET 0 0 0
          }
        }
      }
      JOINT rCollar
      {
        OFFSET -1.4963 7.5744 -1.52136
        CHANNELS 6 Xposition Yposition Zposition Zrotation Xrotation Yrotation
        JOINT rShldr
        {
          OFFSET -5.47506 -0.905672 0.485692
          CHANNELS 6 Xposition Yposition Zposition Zrotation Xrotation Yrotation
          JOINT rForeArm
          {
            OFFSET -11.3069 -0.201091 0.618544
            CHANNELS 6 Xposition Yposition Zposition Zrotation Xrotation Yrotation
            JOINT rHand
            {
              OFFSET -9.61414 -0.254739 3.48553
              CHANNELS 6 Xposition Yposition Zposition Zrotation Xrotation Yrotation
              JOINT rThumb1
              {
                OFFSET 0.176263 -0.07068 1.26622
                CHANNELS 6 Xposition Yposition Zposition Zrotation Xrotation Yrotation
                JOINT rThumb2
                {
                  OFFSET -1.04683 -0.546484 1.82182
                  CHANNELS 6 Xposition Yposition Zposition Zrotation Xrotation Yrotation
                  JOINT rThumb3
                  {
                    OFFSET -0.993472 -0.621916 0.655506
                    CHANNELS 6 Xposition Yposition Zposition Zrotation Xrotation Yrotation
                    End Site
                    {
                      OFFSET -0.996134 -0.66263 0.644615
                    }
                  }
                }
              }
              JOINT rIndex1
              {
                OFFSET -2.64253 0.566363 2.4162
                CHANNELS 6 Xposition Yposition Zposition Zrotation Xrotation Yrotation
                JOINT rIndex2
                {
                  OFFSET -1.39394 -0.635138 0.899356
                  CHANNELS 6 Xposition Yposition Zposition Zrotation Xrotation Yrotation
                  JOINT rIndex3
                  {
                    OFFSET -0.622395 -0.856016 0.402182
                    CHANNELS 6 Xposition Yposition Zposition Zrotation Xrotation Yrotation
                    End Site
                    {
                      OFFSET -0.472476 -0.801802 0.34216
                    }
                  }
                }
              }
              JOINT rMid1
              {
                OFFSET -3.20814 0.514427 1.52547
                CHANNELS 6 Xposition Yposition Zposition Zrotation Xrotation Yrotation
                JOINT rMid2
                {
                  OFFSET -1.56545 -0.497974 0.68919
                  CHANNELS 6 Xposition Yposition Zposition Zrotation Xrotation Yrotation
                  JOINT rMid3
                  {
                    OFFSET -0.679943 -1.17582 0.444246
                    CHANNELS 6 Xposition Yposition Zposition Zrotation Xrotation Yrotation
                    End Site
                    {
                      OFFSET -0.343874 -0.941341 0.267611
                    }
                  }
                }
              }
              JOINT rRing1
              {
                OFFSET -3.47877 0.200518 0.597719
                CHANNELS 6 Xposition Yposition Zposition Zrotation Xrotation Yrotation
                JOINT rRing2
                {
                  OFFSET -1.28208 -0.53155 0.44672
                  CHANNELS 6 Xposition Yposition Zposition Zrotation Xrotation Yrotation
                  JOINT rRing3
                  {
                    OFFSET -0.710288 -0.970167 0.4032
                    CHANNELS 6 Xposition Yposition Zposition Zrotation Xrotation Yrotation
                    End Site
                    {
                      OFFSET -0.403228 -0.950952 0.378354
                    }
                  }
                }
              }
              JOINT rPinky1
              {
                OFFSET -3.42483 -0.278904 -0.240415
                CHANNELS 6 Xposition Yposition Zposition Zrotation Xrotation Yrotation
                JOINT rPinky2
                {
                  OFFSET -1.05787 -0.635999 0.156459
                  CHANNELS 6 Xposition Yposition Zposition Zrotation Xrotation Yrotation
                  JOINT rPinky3
                  {
                    OFFSET -0.42815 -0.754232 0.287187
                    CHANNELS 6 Xposition Yposition Zposition Zrotation Xrotation Yrotation
                    End Site
                    {
                      OFFSET -0.235717 -0.725605 0.279416
                    }
                  }
                }
              }
            }
          }
        }
      }
      JOINT lCollar
      {
        OFFSET 1.4963 7.5744 -1.52136
        CHANNELS 6 Xposition Yposition Zposition Zrotation Xrotation Yrotation
        JOINT lShldr
        {
          OFFSET 5.47506 -0.905672 0.485692
          CHANNELS 6 Xposition Yposition Zposition Zrotation Xrotation Yrotation
          JOINT lForeArm
          {
            OFFSET 11.3069 -0.201091 0.618544
            CHANNELS 6 Xposition Yposition Zposition Zrotation Xrotation Yrotation
            JOINT lHand
            {
              OFFSET 9.61414 -0.254739 3.48553
              CHANNELS 6 Xposition Yposition Zposition Zrotation Xrotation Yrotation
              JOINT lThumb1
              {
                OFFSET -0.176263 -0.07068 1.26622
                CHANNELS 6 Xposition Yposition Zposition Zrotation Xrotation Yrotation
                JOINT lThumb2
                {
                  OFFSET 1.04683 -0.546484 1.82182
                  CHANNELS 6 Xposition Yposition Zposition Zrotation Xrotation Yrotation
                  JOINT lThumb3
                  {
                    OFFSET 0.993472 -0.621916 0.655506
                    CHANNELS 6 Xposition Yposition Zposition Zrotation Xrotation Yrotation
                    End Site
                    {
                      OFFSET 0.996134 -0.66263 0.644615
                    }
                  }
                }
              }
              JOINT lIndex1
              {
                OFFSET 2.64253 0.566363 2.4162
                CHANNELS 6 Xposition Yposition Zposition Zrotation Xrotation Yrotation
                JOINT lIndex2
                {
                  OFFSET 1.39394 -0.635138 0.899356
                  CHANNELS 6 Xposition Yposition Zposition Zrotation Xrotation Yrotation
                  JOINT lIndex3
                  {
                    OFFSET 0.622395 -0.856016 0.402182
                    CHANNELS 6 Xposition Yposition Zposition Zrotation Xrotation Yrotation
                    End Site
                    {
                      OFFSET 0.472476 -0.801802 0.34216
                    }
                  }
                }
              }
              JOINT lMid1
              {
                OFFSET 3.20814 0.514427 1.52547
                CHANNELS 6 Xposition Yposition Zposition Zrotation Xrotation Yrotation
                JOINT lMid2
                {
                  OFFSET 1.56545 -0.497974 0.68919
                  CHANNELS 6 Xposition Yposition Zposition Zrotation Xrotation Yrotation
                  JOINT lMid3
                  {
                    OFFSET 0.679943 -1.17582 0.444246
                    CHANNELS 6 Xposition Yposition Zposition Zrotation Xrotation Yrotation
                    End Site
                    {
                      OFFSET 0.343874 -0.941341 0.267611
                    }
                  }
                }
              }
              JOINT lRing1
              {
                OFFSET 3.47877 0.200518 0.597719
                CHANNELS 6 Xposition Yposition Zposition Zrotation Xrotation Yrotation
                JOINT lRing2
                {
                  OFFSET 1.28208 -0.53155 0.44672
                  CHANNELS 6 Xposition Yposition Zposition Zrotation Xrotation Yrotation
                  JOINT lRing3
                  {
                    OFFSET 0.710288 -0.970167 0.4032
                    CHANNELS 6 Xposition Yposition Zposition Zrotation Xrotation Yrotation
                    End Site
                    {
                      OFFSET 0.403228 -0.950952 0.378354
                    }
                  }
                }
              }
              JOINT lPinky1
              {
                OFFSET 3.42483 -0.278904 -0.240415
                CHANNELS 6 Xposition Yposition Zposition Zrotation Xrotation Yrotation
                JOINT lPinky2
                {
                  OFFSET 1.05787 -0.635999 0.156459
                  CHANNELS 6 Xposition Yposition Zposition Zrotation Xrotation Yrotation
                  JOINT lPinky3
                  {
                    OFFSET 0.42815 -0.754232 0.287187
                    CHANNELS 6 Xposition Yposition Zposition Zrotation Xrotation Yrotation
                    End Site
                    {
                      OFFSET 0.235717 -0.725605 0.279416
                    }
                  }
                }
              }
            }
          }
        }
      }
    }
  }
  JOINT rThigh
  {
    OFFSET -4.17848 -1.02486 0.046356
    CHANNELS 6 Xposition Yposition Zposition Zrotation Xrotation Yrotation
    JOINT rShin
    {
      OFFSET 1.27155 -17.465 -0.237699
      CHANNELS 6 Xposition Yposition Zposition Zrotation Xrotation Yrotation
      JOINT rFoot
      {
        OFFSET 0.529163 -17.3815 -1.19582
        CHANNELS 6 Xposition Yposition Zposition Zrotation Xrotation Yrotation
        JOINT rToe
        {
          OFFSET -0.711591 -4.4863 4.0596
          CHANNELS 6 Xposition Yposition Zposition Zrotation Xrotation Yrotation
          End Site
          {
            OFFSET -0.869915 -1.10655 1.99006
          }
        }
      }
    }
  }
  JOINT lThigh
  {
    OFFSET 4.17848 -1.02486 0.046356
    CHANNELS 6 Xposition Yposition Zposition Zrotation Xrotation Yrotation
    JOINT lShin
    {
      OFFSET -1.27155 -17.465 -0.237699
      CHANNELS 6 Xposition Yposition Zposition Zrotation Xrotation Yrotation
      JOINT lFoot
      {
        OFFSET -0.529163 -17.3815 -1.19582
        CHANNELS 6 Xposition Yposition Zposition Zrotation Xrotation Yrotation
        JOINT lToe
        {
          OFFSET 0.711591 -4.4863 4.0596
          CHANNELS 6 Xposition Yposition Zposition Zrotation Xrotation Yrotation
          End Site
          {
            OFFSET 0.869915 -1.10655 1.99006
          }
        }
      }
    }
  }
}
MOTION
Frames:	4
Frame Time:	0.0333333
-49.1661 41.127 138.525 0.659143 11.3352 -0.57058 7.10543e-015 5.99393 0.287273 -0.491234 4.61126 0.54721 0 6.65865 -0.856112 -1.03183 9.21741 1.13978 0 8.65624 -1.42685 0.00233667 -8.95401 -0.563683 -7.10543e-015 3.80999 -0.190247 2.69591 -0.661832 -0.865695 -1.4963 7.5744 -1.52136 -1.35147 -3.63874 -3.98459 -5.47506 -0.905672 0.485692 81.247 1.02208 -7.4697 -11.3069 -0.201091 0.618544 9.91724 -7.90664 60.5751 -9.61414 -0.254739 3.48553 -26.6248 -1.12351 6.86203 0.176263 -0.07068 1.26622 11.5137 3.43664 -6.06543 -1.04683 -0.546484 1.82182 -0.882778 0.973655 -2.69646 -0.993472 -0.621916 0.655506 -0.882682 0.97361 -2.69621 -2.64253 0.566363 2.4162 5.39266 1.39441 -0.85841 -1.39394 -0.635138 0.899356 5.39104 1.39415 -0.858073 -0.622395 -0.856016 0.402182 5.39015 1.39396 -0.858193 -3.20814 0.514427 1.52547 5.33875 1.59859 -0.832796 -1.56545 -0.497974 0.68919 5.33949 1.59904 -0.833147 -0.679943 -1.17582 0.444246 5.33708 1.60532 -0.837909 -3.47877 0.200518 0.597719 5.25259 1.76567 -1.03745 -1.28208 -0.53155 0.44672 5.25456 1.76658 -1.03846 -0.710288 -0.970167 0.4032 5.25487 1.76673 -1.03832 -3.42483 -0.278904 -0.240415 5.21677 1.90726 -0.964984 -1.05787 -0.635999 0.156459 5.21945 1.90815 -0.965517 -0.42815 -0.754232 0.287187 5.21864 1.90801 -0.965599 1.4963 7.5744 -1.52136 4.65534 1.44102 13.65 5.47506 -0.905672 0.485692 -81.0114 12.0248 -3.24314 11.3069 -0.201091 0.618544 -18.6775 -5.03639 -63.2034 9.61414 -0.254739 3.48553 8.51519 -5.10833 4.71022 -0.176263 -0.07068 1.26622 0.000339569 0.000422607 5.44939e-006 1.04683 -0.546484 1.82182 -0.000275256 -0.000112878 -1.33295e-005 0.993472 -0.621916 0.655506 -7.27256e-005 3.29409e-005 -4.32527e-005 2.64253 0.566363 2.4162 -2.34207e-005 -6.15052e-005 0.000130386 1.39394 -0.635138 0.899356 -0.00409964 -0.00340461 -0.00661304 0.622395 -0.856016 0.402182 -0.000122142 1.43317e-005 -3.81131e-005 3.20814 0.514427 1.52547 8.10604e-005 0.000142268 3.90526e-005 1.56545 -0.497974 0.68919 -4.90894e-005 -0.000124126 0.000134141 0.679943 -1.17582 0.444246 -6.70545e-005 1.9344e-005 -9.41092e-005 3.47877 0.200518 0.597719 -9.77124e-007 -1.31203e-005 7.15772e-005 1.28208 -0.53155 0.44672 -5.13526e-005 -2.29588e-005 8.19841e-005 0.710288 -0.970167 0.4032 -1.26223e-005 -7.22682e-006 0.000160704 3.42483 -0.278904 -0.240415 0.000162322 2.68241e-005 1.72925e-005 1.05787 -0.635999 0.156459 -0.000155029 7.15867e-005 -4.00036e-005 0.42815 -0.754232 0.287187 6.31212e-005 -9.06852e-006 0.000122414 -4.17848 -1.02486 0.046356 -6.14221 -51.9757 6.17938 1.27155 -17.465 -0.237699 78.0091 76.0727 -70.4981 0.529163 -17.3815 -1.19582 -16.4619 0.213789 -3.0587 -0.711591 -4.4863 4.0596 0.46158 3.35222 -0.103426 4.17848 -1.02486 0.046356 -5.76617 -37.5989 2.70739 -1.27155 -17.465 -0.237699 1.7692 46.4233 -4.1455 -0.529163 -17.3815 -1.19582 9.75072 -16.9892 -0.855635 0.711591 -4.4863 4.0596 -0.18544 -2.28384 0.117597 
-49.2177 40.7082 139.445 1.00023 12.4252 2.52512 -7.10543e-015 5.99393 0.287273 -0.204335 4.71394 -1.16869 -7.10543e-015 6.65865 -0.856112 -0.313364 9.43113 -2.33236 0 8.65624 -1.42685 -0.271701 -10.2244 0.145122 7.10543e-015 3.80999 -0.190247 2.58804 -0.634847 0.0967647 -1.4963 7.5744 -1.52136 -1.48344 -3.67992 -4.16009 -5.47506 -0.905672 0.485692 79.4198 -0.215498 -8.47192 -11.3069 -0.201091 0.618544 9.44626 -7.63794 60.0082 -9.61414 -0.254739 3.48553 -26.6091 -2.40227 7.05063 0.176263 -0.07068 1.26622 10.954 4.20109 -5.48152 -1.04683 -0.546484 1.82182 -0.840168 0.92449 -2.56331 -0.993472 -0.621916 0.655506 -0.777395 0.852529 -2.36779 -2.64253 0.566363 2.4162 4.6359 1.71803 -0.409375 -1.39394 -0.635138 0.899356 4.9281 1.27789 -0.779412 -0.622395 -0.856016 0.402182 4.95167 1.28388 -0.783654 -3.20814 0.514427 1.52547 4.17814 1.01708 -0.905569 -1.56545 -0.497974 0.68919 5.32097 1.59364 -0.829999 -0.679943 -1.17582 0.444246 4.6913 1.40949 -0.724303 -3.47877 0.200518 0.597719 3.71726 1.33399 -1.6996 -1.28208 -0.53155 0.44672 5.00453 1.685 -0.985553 -0.710288 -0.970167 0.4032 4.3914 1.48388 -0.857112 -3.42483 -0.278904 -0.240415 3.76375 1.76076 -2.19997 -1.05787 -0.635999 0.156459 4.57896 1.67952 -0.838053 -0.42815 -0.754232 0.287187 4.53012 1.66218 -0.828684 1.4963 7.5744 -1.52136 5.10545 1.07952 13.1706 5.47506 -0.905672 0.485692 -81.5757 12.6538 -6.62361 11.3069 -0.201091 0.618544 -19.4936 -8.10994 -64.1073 9.61414 -0.254739 3.48553 6.97261 -5.62482 4.41027 -0.176263 -0.07068 1.26622 0.419151 0.505934 -1.0445 1.04683 -0.546484 1.82182 -0.254471 -0.0745173 -0.452685 0.993472 -0.621916 0.655506 -0.320631 -0.0934382 -0.570811 2.64253 0.566363 2.4162 0.443637 0.405081 -0.414643 1.39394 -0.635138 0.899356 0.167165 -0.0559256 -0.0666715 0.622395 -0.856016 0.402182 0.144555 -0.0485166 -0.0578333 3.20814 0.514427 1.52547 1.28122 -0.716947 -0.233167 1.56545 -0.497974 0.68919 0.187043 -0.0714599 -0.0750948 0.679943 -1.17582 0.444246 0.765547 -0.293586 -0.306652 3.47877 0.200518 0.597719 1.81462 -0.582238 0.298749 1.28208 -0.53155 0.44672 0.391479 -0.165084 -0.178208 0.710288 -0.970167 0.4032 0.946974 -0.401698 -0.429571 3.42483 -0.278904 -0.240415 1.87965 -0.335202 0.825924 1.05787 -0.635999 0.156459 0.743474 -0.339811 -0.330448 0.42815 -0.754232 0.287187 0.792377 -0.377336 -0.355927 -4.17848 -1.02486 0.046356 -6.7643 -54.2349 7.12509 1.27155 -17.465 -0.237699 79.7713 76.2376 -73.5728 0.529163 -17.3815 -1.19582 -18.5279 -7.2069 -3.53092 -0.711591 -4.4863 4.0596 0.462257 3.3571 -0.103592 4.17848 -1.02486 0.046356 -8.3365 -38.1496 -0.931641 -1.27155 -17.465 -0.237699 1.84042 48.9552 -4.60315 -0.529163 -17.3815 -1.19582 10.1896 -19.3349 -0.637031 0.711591 -4.4863 4.0596 -0.0235167 -3.5783 0.180518 
-49.3686 40.6853 140.517 -0.386582 12.6039 5.35062 0 5.99393 0.287273 0.793176 4.67173 -2.79421 0 6.65865 -0.856112 1.82384 9.29849 -5.68151 0 8.65624 -1.42685 -0.76726 -11.242 1.27188 0 3.80999 -0.190247 2.41106 -0.33791 1.90096 -1.4963 7.5744 -1.52136 -1.80846 -3.77725 -4.61057 -5.47506 -0.905672 0.485692 76.689 -1.98464 -10.8622 -11.3069 -0.201091 0.618544 8.27466 -5.581 58.4811 -9.61414 -0.254739 3.48553 -26.6122 -5.51547 7.57911 0.176263 -0.07068 1.26622 9.49167 6.09503 -3.96668 -1.04683 -0.546484 1.82182 -0.725653 0.793479 -2.20704 -0.993472 -0.621916 0.655506 -0.508017 0.549041 -1.53625 -2.64253 0.566363 2.4162 2.69676 2.52195 0.717388 -1.39394 -0.635138 0.899356 3.75928 0.981406 -0.58487 -0.622395 -0.856016 0.402182 3.84362 1.00298 -0.598983 -3.20814 0.514427 1.52547 1.25222 -0.47648 -1.11885 -1.56545 -0.497974 0.68919 5.26541 1.57744 -0.820595 -0.679943 -1.17582 0.444246 3.05598 0.925593 -0.459072 -3.47877 0.200518 0.597719 -0.185692 0.206553 -3.41941 -1.28208 -0.53155 0.44672 4.37426 1.4782 -0.85374 -0.710288 -0.970167 0.4032 2.21594 0.758008 -0.418869 -3.42483 -0.278904 -0.240415 0.0475213 1.37078 -5.34852 -1.05787 -0.635999 0.156459 2.9638 1.09588 -0.527647 -0.42815 -0.754232 0.287187 2.79411 1.03415 -0.496219 1.4963 7.5744 -1.52136 6.19967 0.15646 11.9732 5.47506 -0.905672 0.485692 -83.213 13.4116 -7.85983 11.3069 -0.201091 0.618544 -20.8943 -10.3641 -64.8503 9.61414 -0.254739 3.48553 3.02226 -6.69141 3.13245 -0.176263 -0.07068 1.26622 1.54065 1.71213 -3.69668 1.04683 -0.546484 1.82182 -0.899296 -0.253527 -1.59791 0.993472 -0.621916 0.655506 -1.13458 -0.315274 -2.01512 2.64253 0.566363 2.4162 1.59172 1.41805 -1.46255 1.39394 -0.635138 0.899356 0.588982 -0.198455 -0.23456 0.622395 -0.856016 0.402182 0.509959 -0.171827 -0.20335 3.20814 0.514427 1.52547 4.48676 -2.58685 -0.774523 1.56545 -0.497974 0.68919 0.659267 -0.252697 -0.264058 0.679943 -1.17582 0.444246 2.6926 -1.05321 -1.06339 3.47877 0.200518 0.597719 6.40179 -2.14486 1.13715 1.28208 -0.53155 0.44672 1.37803 -0.587363 -0.623481 0.710288 -0.970167 0.4032 3.32576 -1.44735 -1.48515 3.42483 -0.278904 -0.240415 6.66032 -1.24277 2.97649 1.05787 -0.635999 0.156459 2.61321 -1.21712 -1.14526 0.42815 -0.754232 0.287187 2.76472 -1.29716 -1.21208 -4.17848 -1.02486 0.046356 -5.2333 -55.0917 7.46019 1.27155 -17.465 -0.237699 74.4157 76.1648 -69.8166 0.529163 -17.3815 -1.19582 -20.3317 -16.5216 -6.1342 -0.711591 -4.4863 4.0596 0.690904 4.99643 -0.164202 4.17848 -1.02486 0.046356 -8.10933 -36.4312 -3.10301 -1.27155 -17.465 -0.237699 1.99079 49.4264 -4.61651 -0.529163 -17.3815 -1.19582 10.5539 -21.492 -1.01025 0.711591 -4.4863 4.0596 0.0879175 -4.46119 0.225543 
-49.4604 41.4079 141.67 -3.17336 13.1429 8.04525 -1.42109e-014 5.99393 0.287273 2.1739 4.40887 -4.1885 -7.10543e-015 6.65865 -0.856112 4.68609 8.64311 -8.57907 0 8.65624 -1.42685 -1.07578 -11.6904 1.86152 0 3.80999 -0.190247 2.11157 -0.678894 3.77478 -1.4963 7.5744 -1.52136 -2.23982 -3.89747 -5.24221 -5.47506 -0.905672 0.485692 73.8904 -3.70906 -13.2844 -11.3069 -0.201091 0.618544 6.83551 -3.11723 56.5642 -9.61414 -0.254739 3.48553 -26.6757 -9.56383 8.41578 0.176263 -0.07068 1.26622 7.36393 8.60896 -1.7885 -1.04683 -0.546484 1.82182 -0.555171 0.601458 -1.68082 -0.993472 -0.621916 0.655506 -0.131133 0.138814 -0.392428 -2.64253 0.566363 2.4162 -0.0297264 3.59267 2.24707 -1.39394 -0.635138 0.899356 2.1564 0.568038 -0.327759 -0.622395 -0.856016 0.402182 2.32404 0.611634 -0.354375 -3.20814 0.514427 1.52547 -2.75437 -2.58086 -1.48273 -1.56545 -0.497974 0.68919 5.20987 1.56124 -0.811218 -0.679943 -1.17582 0.444246 0.81481 0.249362 -0.117711 -3.47877 0.200518 0.597719 -5.60378 -1.41621 -5.89883 -1.28208 -0.53155 0.44672 3.51 1.19202 -0.676544 -0.710288 -0.970167 0.4032 -0.760867 -0.264375 0.137179 -3.42483 -0.278904 -0.240415 -5.16144 0.805882 -9.74248 -1.05787 -0.635999 0.156459 0.752155 0.280939 -0.128643 -0.42815 -0.754232 0.287187 0.419751 0.146737 -0.0676729 1.4963 7.5744 -1.52136 7.54971 -1.07826 10.4233 5.47506 -0.905672 0.485692 -84.5465 13.7381 -7.6027 11.3069 -0.201091 0.618544 -22.6151 -11.5515 -65.4356 9.61414 -0.254739 3.48553 -2.33698 -7.51001 0.281792 -0.176263 -0.07068 1.26622 3.21793 3.19165 -7.36896 1.04683 -0.546484 1.82182 -1.78999 -0.47808 -3.17308 0.993472 -0.621916 0.655506 -2.26069 -0.586254 -4.00301 2.64253 0.566363 2.4162 3.23175 2.783 -2.90262 1.39394 -0.635138 0.899356 1.16745 -0.396139 -0.463326 0.622395 -0.856016 0.402182 1.03116 -0.34952 -0.409756 3.20814 0.514427 1.52547 8.82206 -5.28342 -1.40344 1.56545 -0.497974 0.68919 1.30651 -0.504001 -0.520993 0.679943 -1.17582 0.444246 5.32156 -2.13601 -2.05983 3.47877 0.200518 0.597719 12.7148 -4.48627 2.50359 1.28208 -0.53155 0.44672 2.72697 -1.17931 -1.22277 0.710288 -0.970167 0.4032 6.56031 -2.95117 -2.86222 3.42483 -0.278904 -0.240415 13.3017 -2.60754 6.09846 1.05787 -0.635999 0.156459 5.16065 -2.46356 -2.21689 0.42815 -0.754232 0.287187 5.45689 -2.62367 -2.34147 -4.17848 -1.02486 0.046356 -4.48482 -62.227 6.39422 1.27155 -17.465 -0.237699 88.016 76.7455 -84.7793 0.529163 -17.3815 -1.19582 -18.6373 -24.7153 -8.07827 -0.711591 -4.4863 4.0596 1.04244 7.48219 -0.269168 4.17848 -1.02486 0.046356 -6.35777 -33.3744 -6.02383 -1.27155 -17.465 -0.237699 1.84488 45.4128 -3.98476 -0.529163 -17.3815 -1.19582 9.76954 -20.4497 -1.30088 0.711591 -4.4863 4.0596 0.221539 -5.55075 0.284688 
